Coordinates
version=1
nRows=16
nColumns=42
inDegrees=yes

Units are S.I. units (second, meters, Newtons, ...)
If the header above contains a line with 'inDegrees', this indicates whether rotational values are in degrees (yes) or radians (no).

endheader
time	pelvis_tilt	pelvis_list	pelvis_rotation	pelvis_tx	pelvis_ty	pelvis_tz	hip_flexion_r	hip_adduction_r	hip_rotation_r	knee_angle_r	knee_adduction_r	knee_angle_r_beta	ankle_angle_r	subtalar_angle_r	mtp_angle_r	hip_flexion_l	hip_adduction_l	hip_rotation_l	knee_angle_l	knee_adduction_l	knee_angle_l_beta	ankle_angle_l	subtalar_angle_l	mtp_angle_l	lumbar_extension	lumbar_bending	lumbar_rotation	arm_flex_r	arm_add_r	arm_rot_r	elbow_flex_r	pro_sup_r	wrist_flex_r	wrist_dev_r	arm_flex_l	arm_add_l	arm_rot_l	elbow_flex_l	pro_sup_l	wrist_flex_l	wrist_dev_l
      3.16000000	      1.69106998	      1.44609514	      1.97554250	      0.25878808	      0.93272458	      0.02749798	     14.32984640	     -3.01349746	     -6.16708014	     14.10758240	      5.03679177	      0.24622376	     -4.97452571	    -10.05817906	     -7.50002884	     -8.37008631	     -2.64194305	      2.10201634	     37.67677897	      7.74449292	      0.65758384	     -6.82115302	    -19.35628383	     -7.50002884	    -14.18888472	      0.57553218	     -6.45220056	     -6.95634478	     -8.62897654	     -5.05511586	     27.86598808	     90.00000001	      0.00000000	      0.00000000	     -1.74919024	    -15.15764985	      0.36419095	     43.65916930	     90.00000001	      0.00000000	      0.00000000
      3.17000000	      1.84150969	      1.79201316	      1.87191086	      0.26990214	      0.93547631	      0.02873048	     13.18532242	     -3.20764273	     -6.36401428	     13.73583104	      4.96646059	      0.23973548	     -4.51241211	     -9.35875053	     -7.50002846	     -6.92365022	     -2.24423645	      1.60917546	     39.85621537	      7.47774388	      0.69562219	     -6.35707533	    -19.38296857	     -7.50002846	    -14.41981352	      0.11926438	     -6.20902318	     -6.63059767	     -8.73644161	     -5.01393688	     28.17844716	     90.00000001	      0.00000000	      0.00000000	     -2.27026345	    -14.98262715	      0.35946209	     42.73776770	     90.00000001	      0.00000000	      0.00000000
      3.18000000	      1.71017597	      2.01952889	      1.56134525	      0.28095261	      0.93759681	      0.02997960	     12.48215227	     -3.22296824	     -6.47415841	     13.51089504	      4.75976751	      0.23580960	     -3.51057196	     -7.91267607	     -7.50002758	     -5.02845002	     -1.93639178	      0.02228670	     42.15124234	      6.63072169	      0.73567796	     -5.66482703	    -19.33826190	     -7.50002758	    -14.23984858	     -0.20304655	     -5.70290804	     -6.41916120	     -8.99133357	     -4.75121115	     28.55072234	     90.00000001	      0.00000000	      0.00000000	     -2.37749706	    -14.48421628	      0.10606631	     40.58697869	     90.00000001	      0.00000000	      0.00000000
      3.19000000	      1.76906861	      2.34089095	      1.42441703	      0.29191717	      0.93990056	      0.03119257	     11.46100533	     -3.38496056	     -6.55701640	     13.11169173	      4.67676994	      0.22884219	     -3.07502045	     -7.29016117	     -7.50002717	     -3.50415799	     -1.57391355	     -0.17665589	     43.80318473	      6.60657970	      0.76450980	     -5.18069014	    -19.35459037	     -7.50002717	    -14.32828534	     -0.65905420	     -5.50861118	     -6.04169944	     -9.15670007	     -4.62558583	     28.89799332	     90.00000001	      0.00000000	      0.00000000	     -2.99924340	    -14.30815772	     -0.01528822	     39.68593286	     90.00000001	      0.00000000	      0.00000000
      3.20000000	      1.72273970	      2.61538265	      1.10497201	      0.30267871	      0.94180228	      0.03242673	     10.73101909	     -3.49807363	     -6.89413356	     12.96508304	      4.48604747	      0.22628339	     -2.04692443	     -5.37684371	     -7.50002514	     -1.80782160	     -1.23776147	     -0.70670838	     45.35610140	      6.48710457	      0.79161331	     -4.65028071	    -19.33471857	     -7.50002514	    -14.26729942	     -1.06731342	     -5.03721783	     -5.89393350	     -9.61928497	     -3.42930441	     29.53050531	     90.00000001	      0.00000000	      0.00000000	     -2.76650442	    -13.50047390	     -1.49627240	     36.94012290	     90.00000001	      0.00000000	      0.00000000
      3.21000000	      1.79061021	      2.93786875	      0.83100792	      0.31335718	      0.94362959	      0.03366450	      9.78540177	     -3.69190173	     -6.87946491	     12.64478307	      4.44600324	      0.22069310	     -1.74572484	     -5.02743988	     -7.50002484	     -0.31397689	     -0.86804494	     -0.67086260	     46.50758104	      6.77172055	      0.81171042	     -4.28390658	    -19.32483101	     -7.50002484	    -14.36804379	     -1.55967638	     -4.73548695	     -5.42722312	     -9.79945160	     -3.35321982	     29.87185994	     90.00000001	      0.00000000	      0.00000000	     -3.53121011	    -13.43519227	     -1.55991188	     36.50735720	     90.00000001	      0.00000000	      0.00000000
      3.22000000	      1.70476356	      3.14378717	      0.48609375	      0.32390631	      0.94501671	      0.03491578	      9.06464755	     -3.70189190	     -6.92868677	     12.36128042	      4.25449554	      0.21574504	     -0.86660974	     -3.79510112	     -7.50002305	      1.35572134	     -0.60890491	     -0.66737379	     47.46001593	      7.07537265	      0.82833354	     -3.81696158	    -19.29847267	     -7.50002305	    -14.26909258	     -1.92553081	     -4.36033047	     -5.13325408	    -10.35879342	     -1.93460071	     30.56320061	     90.00000001	      0.00000000	      0.00000000	     -3.71842820	    -12.88695252	     -2.74070646	     34.60918983	     90.00000001	      0.00000000	      0.00000000
      3.23000000	      1.66480636	      3.33101234	      0.15677205	      0.33447384	      0.94620397	      0.03625841	      8.24455524	     -3.72824252	     -6.81850175	     12.00820618	      4.19963763	      0.20958274	     -0.46448639	     -3.38625744	     -7.50002271	      2.92758115	     -0.42332353	     -0.49149799	     48.11160494	      7.59580392	      0.83970591	     -3.46480052	    -19.29161710	     -7.50002271	    -14.19928995	     -2.31679007	     -3.97505805	     -4.72732720	    -10.57172716	     -1.81803348	     30.94618188	     90.00000001	      0.00000000	      0.00000000	     -4.53968141	    -12.81211308	     -2.88351994	     34.19087044	     90.00000001	      0.00000000	      0.00000000
      3.24000000	      1.62742188	      3.46941571	     -0.20046786	      0.34495557	      0.94712843	      0.03758523	      7.45111221	     -3.68758032	     -6.68423336	     11.67886189	      4.08710572	      0.20383459	      0.11733593	     -2.84246414	     -7.50002230	      4.45182573	     -0.29529723	     -0.19464369	     48.48451955	      8.22113964	      0.84621450	     -3.10248599	    -19.28130807	     -7.50002230	    -14.13605563	     -2.65486508	     -3.57019527	     -4.32111020	    -10.87424180	     -1.54372850	     31.44655130	     90.00000001	      0.00000000	      0.00000000	     -5.25298288	    -12.67348283	     -3.13587076	     33.58568948	     90.00000001	      0.00000000	      0.00000000
      3.25000000	      1.61364992	      3.56565842	     -0.53841433	      0.35543946	      0.94783234	      0.03887473	      6.63851936	     -3.62913920	     -6.61278680	     11.36568746	      3.99701259	      0.19836867	      0.68326765	     -2.27684789	     -7.50002195	      5.90634042	     -0.20817115	      0.08358573	     48.58913315	      8.78896362	      0.84804035	     -2.78664676	    -19.27919052	     -7.50002195	    -14.08436523	     -2.94220676	     -3.20539165	     -3.91930357	    -11.18334071	     -1.24572997	     32.02314788	     90.00000001	      0.00000000	      0.00000000	     -5.97310489	    -12.54035706	     -3.42704760	     32.95997326	     90.00000001	      0.00000000	      0.00000000
      3.26000000	      1.67658179	      3.62476571	     -0.91539319	      0.36595758	      0.94836761	      0.04013805	      5.90090639	     -3.56023754	     -7.30866789	     11.36311488	      3.75831964	      0.19832377	      1.75818773	     -0.06121049	     -7.50002002	      7.17598804	     -0.17016736	      0.38412256	     48.35768808	      9.40269594	      0.84400088	     -2.48983009	    -19.29283474	     -7.50002002	    -14.11658710	     -3.18446809	     -2.77224256	     -4.08979310	    -12.12451449	      1.05739035	     33.78891066	     90.00000001	      0.00000000	      0.00000000	     -6.08362541	    -11.82419338	     -5.86004321	     31.25706192	     90.00000001	      0.00000000	      0.00000000
      3.27000000	      1.72848054	      3.64980668	     -1.27851016	      0.37631386	      0.94868468	      0.04141379	      5.13697758	     -3.48520242	     -7.47345278	     11.28039841	      3.67915501	      0.19688009	      1.96215967	      0.04531923	     -7.50001986	      8.48206209	     -0.16345424	      0.26351455	     48.02387937	      9.62271583	      0.83817481	     -2.34524592	    -19.31635840	     -7.50001986	    -14.15158541	     -3.41087777	     -2.26118384	     -3.59354087	    -12.41955038	      1.01202022	     34.10761056	     90.00000001	      0.00000000	      0.00000000	     -6.86190378	    -11.76532642	     -5.91525562	     30.99816707	     90.00000001	      0.00000000	      0.00000000
      3.28000000	      1.73248767	      3.61626341	     -1.58233065	      0.38681710	      0.94877488	      0.04257949	      4.27307236	     -3.29963159	     -7.32336454	     10.93094345	      3.55947083	      0.19078095	      3.13024820	      1.31452682	     -7.50001846	      9.67938943	     -0.22030377	      0.62479061	     47.27780193	     10.16897549	      0.82515331	     -1.99227096	    -19.31111584	     -7.50001846	    -14.10311225	     -3.53811283	     -2.02226912	     -3.60043343	    -12.99494641	      1.89764175	     35.66976437	     90.00000001	      0.00000000	      0.00000000	     -7.41266437	    -11.32109346	     -7.51455079	     30.17673498	     90.00000001	      0.00000000	      0.00000000
      3.29000000	      1.72360396	      3.52335702	     -1.90284600	      0.39720828	      0.94867605	      0.04378616	      3.51458076	     -3.09670495	     -7.30375586	     10.75267700	      3.49469253	      0.18766962	      3.50702609	      1.51722345	     -7.50001825	     10.88620778	     -0.33341737	      0.42263615	     46.42438370	     10.20420015	      0.81025835	     -1.87905058	    -19.31299324	     -7.50001825	    -14.03415616	     -3.61532507	     -1.64531011	     -3.10658175	    -13.29460917	      1.87088361	     36.06708576	     90.00000001	      0.00000000	      0.00000000	     -8.22511627	    -11.24618570	     -7.64289293	     29.87308105	     90.00000001	      0.00000000	      0.00000000
      3.30000000	      1.81943085	      3.45940079	     -2.23919705	      0.40755332	      0.94852688	      0.04489291	      2.53376844	     -2.95570504	     -6.88227077	     10.36529010	      3.50070546	      0.18090844	      4.42944354	      2.06411824	     -7.50001786	     11.86777776	     -0.41129328	      0.38718448	     45.24693169	     10.36321341	      0.78970793	     -1.77947106	    -19.32730154	     -7.50001786	    -14.12951111	     -3.71492919	     -1.25122192	     -2.79772021	    -13.69156976	      2.01847428	     36.89814369	     90.00000001	      0.00000000	      0.00000000	     -8.90253940	    -11.08577282	     -8.17061988	     29.52228544	     90.00000001	      0.00000000	      0.00000000
      3.31000000	      1.86737531	      3.31478287	     -2.52234387	      0.41790059	      0.94814514	      0.04594258	      1.72740355	     -2.75121680	     -7.20094978	     10.23974574	      3.40340622	      0.17871728	      5.22353739	      3.25689038	     -7.50001635	     12.85289532	     -0.56685470	      0.09818828	     43.91876892	     10.25542533	      0.76652712	     -1.70887934	    -19.33936099	     -7.50001635	    -14.16475356	     -3.71406203	     -0.95065470	     -2.82226483	    -14.43573595	      3.03373991	     38.61211846	     90.00000001	      0.00000000	      0.00000000	     -9.26328744	    -10.53530616	    -10.48928276	     28.61716964	     90.00000001	      0.00000000	      0.00000000
